<svg xmlns="http://www.w3.org/2000/svg" viewBox="0 0 128 128">
  <path d="M86,6L32,6c-7.2,0-13,5.8-13,13v90c0,7.2,5.8,13,13,13h64c7.2,0,13-5.8,13-13V29c0-6.1-2.4-11.9-6.7-16.3S92.1,6,86,6z M52,30h24c1.7,0,3,1.3,3,3s-1.3,3-3,3h-9v28c0,1.7-1.3,3-3,3s-3-1.3-3-3V36h-9c-1.7,0-3-1.3-3-3S50.3,30,52,30z M71,102H37 c-1.7,0-3-1.3-3-3s1.3-3,3-3h34c1.7,0,3,1.3,3,3S72.7,102,71,102z M91,102h-4c-1.7,0-3-1.3-3-3s1.3-3,3-3h4c1.7,0,3,1.3,3,3 S92.7,102,91,102z M91,87H37c-1.7,0-3-1.3-3-3s1.3-3,3-3h54c1.7,0,3,1.3,3,3S92.7,87,91,87z M96,26c-3.9,0-7-3.1-7-7l0-6.7 c3.4,0.6,6.5,2.2,9,4.7c2.5,2.5,4.1,5.6,4.7,9H96z" fill="#5B5B5B" />
</svg>