<svg xmlns="http://www.w3.org/2000/svg" viewBox="0 0 64 64">
  <path fill="#fff" d="M8.945313 6C8.140625 6 7.386719 6.3125 6.820313 6.882813C6.253906 7.449219 6 8.203125 6 9.007813L6 38.527344C6 38.683594 5.960938 38.839844 5.890625 38.980469L0.527344 49.707031C0.183594 50.398438 0 51.171875 0 51.941406L0 55C0 56.652344 1.347656 58 3 58L61 58C62.652344 58 64 56.652344 64 55L64 51.941406C64 51.171875 63.816406 50.398438 63.472656 49.707031L58.105469 38.976563C58.039063 38.835938 58 38.679688 58 38.527344L58 9C58 7.347656 56.652344 6 55 6 Z M 8.945313 8L55 8C55.550781 8 56 8.449219 56 9L56 38.527344C56 38.992188 56.109375 39.453125 56.316406 39.871094L61.382813 50L2.617188 50L7.617188 40L45 40C45.550781 40 46 39.550781 46 39C46 38.449219 45.550781 38 45 38L8 38L8 9C8 8.734375 8.046875 8.484375 8.234375 8.296875C8.421875 8.105469 8.675781 8 8.945313 8 Z M 14 16C13.449219 16 13 16.449219 13 17C13 17.550781 13.449219 18 14 18L22 18C22.550781 18 23 17.550781 23 17C23 16.449219 22.550781 16 22 16 Z M 26 16C25.449219 16 25 16.449219 25 17C25 17.550781 25.449219 18 26 18L28 18C28.550781 18 29 17.550781 29 17C29 16.449219 28.550781 16 28 16 Z M 36 16C35.449219 16 35 16.449219 35 17C35 17.550781 35.449219 18 36 18L46 18C46.550781 18 47 17.550781 47 17C47 16.449219 46.550781 16 46 16 Z M 14 20C13.449219 20 13 20.449219 13 21C13 21.550781 13.449219 22 14 22L26 22C26.550781 22 27 21.550781 27 21C27 20.449219 26.550781 20 26 20 Z M 36 20C35.449219 20 35 20.449219 35 21C35 21.550781 35.449219 22 36 22L50 22C50.550781 22 51 21.550781 51 21C51 20.449219 50.550781 20 50 20 Z M 14 24C13.449219 24 13 24.449219 13 25C13 25.550781 13.449219 26 14 26L28 26C28.550781 26 29 25.550781 29 25C29 24.449219 28.550781 24 28 24 Z M 36 24C35.449219 24 35 24.449219 35 25C35 25.550781 35.449219 26 36 26L50 26C50.550781 26 51 25.550781 51 25C51 24.449219 50.550781 24 50 24 Z M 14 28C13.449219 28 13 28.449219 13 29C13 29.550781 13.449219 30 14 30L23 30C23.550781 30 24 29.550781 24 29C24 28.449219 23.550781 28 23 28 Z M 36 28C35.449219 28 35 28.449219 35 29C35 29.550781 35.449219 30 36 30L42 30C42.550781 30 43 29.550781 43 29C43 28.449219 42.550781 28 42 28 Z M 46 28C45.449219 28 45 28.449219 45 29C45 29.550781 45.449219 30 46 30L48 30C48.550781 30 49 29.550781 49 29C49 28.449219 48.550781 28 48 28 Z M 49 38C48.449219 38 48 38.449219 48 39C48 39.550781 48.449219 40 49 40L53 40C53.550781 40 54 39.550781 54 39C54 38.449219 53.550781 38 53 38 Z M 10 42C9.449219 42 9 42.449219 9 43C9 43.550781 9.449219 44 10 44L12 44C12.550781 44 13 43.550781 13 43C13 42.449219 12.550781 42 12 42 Z M 16 42C15.449219 42 15 42.449219 15 43C15 43.550781 15.449219 44 16 44L18 44C18.550781 44 19 43.550781 19 43C19 42.449219 18.550781 42 18 42 Z M 22 42C21.449219 42 21 42.449219 21 43C21 43.550781 21.449219 44 22 44L24 44C24.550781 44 25 43.550781 25 43C25 42.449219 24.550781 42 24 42 Z M 28 42C27.449219 42 27 42.449219 27 43C27 43.550781 27.449219 44 28 44L30 44C30.550781 44 31 43.550781 31 43C31 42.449219 30.550781 42 30 42 Z M 34 42C33.449219 42 33 42.449219 33 43C33 43.550781 33.449219 44 34 44L36 44C36.550781 44 37 43.550781 37 43C37 42.449219 36.550781 42 36 42 Z M 40 42C39.449219 42 39 42.449219 39 43C39 43.550781 39.449219 44 40 44L42 44C42.550781 44 43 43.550781 43 43C43 42.449219 42.550781 42 42 42 Z M 46 42C45.449219 42 45 42.449219 45 43C45 43.550781 45.449219 44 46 44L48 44C48.550781 44 49 43.550781 49 43C49 42.449219 48.550781 42 48 42 Z M 52 42C51.449219 42 51 42.449219 51 43C51 43.550781 51.449219 44 52 44L54 44C54.550781 44 55 43.550781 55 43C55 42.449219 54.550781 42 54 42 Z M 13 46C12.449219 46 12 46.449219 12 47C12 47.550781 12.449219 48 13 48L15 48C15.550781 48 16 47.550781 16 47C16 46.449219 15.550781 46 15 46 Z M 19 46C18.449219 46 18 46.449219 18 47C18 47.550781 18.449219 48 19 48L21 48C21.550781 48 22 47.550781 22 47C22 46.449219 21.550781 46 21 46 Z M 25 46C24.449219 46 24 46.449219 24 47C24 47.550781 24.449219 48 25 48L39 48C39.550781 48 40 47.550781 40 47C40 46.449219 39.550781 46 39 46 Z M 43 46C42.449219 46 42 46.449219 42 47C42 47.550781 42.449219 48 43 48L45 48C45.550781 48 46 47.550781 46 47C46 46.449219 45.550781 46 45 46 Z M 49 46C48.449219 46 48 46.449219 48 47C48 47.550781 48.449219 48 49 48L51 48C51.550781 48 52 47.550781 52 47C52 46.449219 51.550781 46 51 46 Z M 2 52L62 52L62 55C62 55.550781 61.550781 56 61 56L3 56C2.449219 56 2 55.550781 2 55Z"/>
</svg>